<svg xmlns="http://www.w3.org/2000/svg" width="1365" height="768" viewBox="0 0 1365 768">
<g>
<path d="M 1341.00 478.83 C1339.07,478.36 1330.17,476.92 1321.21,475.62 C1312.26,474.32 1304.69,473.02 1304.40,472.73 C1303.87,472.21 1285.56,423.58 1281.78,412.67 C1280.67,409.46 1279.42,407.21 1279.01,407.67 C1278.59,408.13 1273.20,421.18 1267.03,436.68 C1260.85,452.18 1255.27,465.07 1254.62,465.32 C1253.97,465.57 1251.20,465.43 1248.47,465.00 C1245.74,464.58 1237.31,463.67 1229.75,462.97 C1220.75,462.14 1216.00,461.30 1216.00,460.54 C1216.00,459.04 1229.13,428.75 1249.42,383.41 L 1260.21 359.32 L 1247.66 327.41 C1223.43,265.81 1218.04,251.56 1218.77,251.03 C1218.80,251.01 1218.88,250.99 1219.00,250.97 C1219.00,250.98 1219.00,250.99 1219.00,251.00 C1219.00,251.55 1220.01,251.99 1221.25,251.98 C1223.07,251.97 1223.21,251.78 1222.00,251.00 C1221.91,250.94 1221.82,250.89 1221.73,250.83 C1225.26,250.76 1231.53,250.82 1238.50,251.00 L 1257.50 251.50 L 1259.26 255.10 C1260.23,257.07 1262.79,263.60 1264.95,269.60 C1267.11,275.59 1270.74,285.23 1273.00,291.00 C1275.27,296.77 1277.88,303.49 1278.81,305.92 C1279.74,308.34 1280.88,310.37 1281.33,310.42 C1281.79,310.46 1287.43,297.23 1293.87,281.00 L 1305.56 251.50 L 1306.00 251.51 C1305.79,251.65 1305.61,251.82 1305.50,252.00 C1305.16,252.55 1305.56,253.00 1306.38,253.00 C1307.21,253.00 1308.16,252.55 1308.50,252.00 C1308.60,251.84 1308.64,251.69 1308.62,251.55 L 1308.78 251.56 C1310.55,251.59 1319.20,251.70 1328.00,251.81 C1340.05,251.95 1344.00,252.31 1344.00,253.25 C1344.00,253.94 1334.32,278.54 1322.50,307.91 C1310.68,337.28 1301.00,362.03 1301.00,362.90 C1301.00,364.54 1304.01,373.11 1306.47,378.50 C1307.22,380.15 1309.64,386.23 1311.83,392.00 C1314.03,397.77 1320.18,413.52 1325.51,427.00 C1330.83,440.48 1336.46,454.88 1338.00,459.00 C1339.21,462.22 1340.94,466.71 1342.30,470.15 C1342.12,469.85 1341.95,469.62 1341.80,469.47 C1341.25,468.92 1342.41,475.00 1343.58,478.81 C1343.65,479.03 1343.75,479.21 1343.87,479.35 C1343.08,479.27 1342.05,479.08 1341.00,478.83 ZM 502.76 471.25 C502.48,468.09 502.16,461.38 502.06,456.34 C501.87,447.31 501.94,447.01 507.33,434.34 C510.34,427.28 520.54,402.83 530.01,380.00 C539.48,357.17 550.26,331.30 553.97,322.50 C564.72,296.94 567.41,290.08 566.88,289.55 C566.34,289.01 519.41,290.60 509.25,291.50 L 503.00 292.06 L 502.90 284.78 C502.84,280.78 502.73,272.33 502.65,266.00 L 502.50 254.50 L 525.00 253.87 C537.38,253.53 561.45,252.92 578.50,252.52 C595.55,252.12 609.68,251.62 609.91,251.41 C610.13,251.19 610.92,251.52 611.66,252.13 C612.65,252.96 613.00,256.54 613.00,265.94 L 613.00 278.64 L 603.63 301.07 C598.48,313.41 588.53,337.45 581.52,354.50 C574.51,371.55 566.85,390.00 564.49,395.50 C555.95,415.48 549.76,431.09 550.20,431.54 C550.45,431.78 554.00,431.55 558.08,431.01 C562.16,430.47 572.03,429.35 580.00,428.51 C587.97,427.67 598.27,426.55 602.88,426.01 C605.81,425.67 608.57,425.47 610.31,425.44 C610.19,425.87 610.52,426.65 611.15,427.34 C611.68,427.91 612.21,428.18 612.55,428.10 C613.20,436.17 613.14,460.79 612.25,461.34 C611.84,461.60 603.62,462.78 594.00,463.97 C556.27,468.65 537.80,471.19 521.06,474.04 C511.47,475.67 503.55,477.00 503.45,477.00 C503.36,477.00 503.05,474.41 502.76,471.25 ZM 644.89 456.39 C644.67,455.35 644.64,408.98 644.82,353.34 L 645.16 252.17 L 654.33 251.62 C659.37,251.31 681.82,250.85 704.20,250.60 L 742.69 250.16 C742.38,250.34 742.28,250.65 742.50,251.00 C742.84,251.55 743.54,252.00 744.06,252.00 C744.45,252.00 744.79,251.74 744.93,251.38 L 745.20 266.20 C745.40,276.72 745.14,282.40 744.45,282.66 C743.88,282.88 729.48,283.38 712.45,283.78 L 681.50 284.50 L 681.50 333.50 L 706.77 333.77 L 732.05 334.03 L 731.77 351.27 L 731.50 368.50 L 706.76 368.77 C682.10,369.03 682.03,369.04 681.48,371.27 C681.18,372.50 681.06,383.85 681.22,396.50 L 681.50 419.50 L 691.00 419.50 C696.22,419.50 710.52,419.13 722.77,418.67 L 745.05 417.85 L 744.77 435.17 L 744.50 452.50 L 729.50 453.23 C708.62,454.24 663.14,456.87 653.40,457.64 C646.00,458.22 645.27,458.11 644.89,456.39 ZM 77.67 293.33 C77.30,292.97 77.00,282.39 77.00,269.83 L 77.00 247.49 L 218.81 247.75 C313.03,247.92 360.91,248.34 360.50,249.00 C360.13,249.60 361.52,250.00 364.00,250.00 C366.49,250.00 367.87,250.40 367.50,251.00 C367.16,251.55 367.70,252.00 368.69,252.01 C370.98,252.01 377.08,253.73 378.86,254.88 C380.81,256.13 379.63,258.94 374.21,265.89 C368.16,273.64 364.01,280.32 363.09,283.77 C362.68,285.27 361.72,286.50 360.94,286.50 C359.14,286.50 358.40,289.97 360.18,290.10 C360.90,290.16 359.92,290.70 358.00,291.30 C355.80,291.98 337.00,292.60 307.50,292.96 C290.97,293.17 281.86,293.30 281.86,293.41 C281.86,293.56 302.27,293.65 348.75,293.77 L 437.00 294.00 L 257.67 294.00 C159.03,294.00 78.03,293.70 77.67,293.33 ZM 909.25 348.75 L 909.50 249.50 L 957.27 249.45 L 1005.05 249.40 L 1004.77 265.45 L 1004.50 281.50 L 946.00 282.03 L 946.00 332.00 L 992.96 332.00 L 993.52 334.25 C993.82,335.49 993.94,343.25 993.79,351.50 L 993.50 366.50 L 946.00 367.04 L 946.00 448.00 L 908.99 448.00 ZM 77.07 461.91 L 77.00 479.31 L 160.20 478.59 C166.91,478.53 173.44,478.47 179.71,478.41 C173.46,478.47 166.94,478.54 160.25,478.59 L 77.00 479.31 L 77.00 401.72 L 80.16 398.18 C74.94,404.18 77.46,404.21 83.32,397.89 C90.47,390.17 109.99,366.75 115.20,359.63 C117.57,356.40 122.25,350.74 125.62,347.06 C128.98,343.37 132.32,339.27 133.03,337.93 C135.59,333.13 145.42,322.95 148.19,322.23 C152.70,321.05 201.27,322.31 201.71,323.61 C201.91,324.23 199.02,328.32 195.29,332.71 C186.79,342.69 184.14,345.91 165.00,369.54 C156.48,380.06 142.98,396.66 135.00,406.42 C127.03,416.18 119.71,425.36 118.76,426.83 C116.25,430.67 116.47,434.83 119.25,436.05 C120.63,436.65 130.81,436.83 145.50,436.51 C158.70,436.23 182.55,435.92 198.50,435.82 C215.89,435.71 230.70,435.14 235.50,434.38 C238.21,433.96 238.50,433.68 234.52,433.52 L 244.50 433.50 L 244.64 444.37 C244.26,439.52 243.56,440.46 242.49,447.00 C241.10,455.54 237.82,460.00 232.92,460.00 C231.86,460.00 231.00,460.35 231.00,460.79 C231.00,461.22 230.21,461.60 229.25,461.63 C228.29,461.67 224.80,462.19 221.50,462.79 C205.87,465.66 192.11,467.02 176.94,467.18 C167.84,467.28 159.84,467.02 159.18,466.61 C157.58,465.62 153.18,464.67 149.75,464.58 C148.24,464.53 147.00,464.13 147.00,463.68 C147.00,463.23 146.19,463.12 145.20,463.44 C144.21,463.75 141.06,462.88 138.20,461.50 C135.35,460.13 131.94,459.00 130.64,459.00 C129.33,459.00 125.44,458.10 122.00,457.00 C118.56,455.90 115.23,455.00 114.60,455.00 C113.98,455.00 111.79,454.10 109.74,453.00 C107.69,451.90 104.98,451.00 103.72,451.00 C102.45,451.00 99.66,450.10 97.50,449.00 C95.34,447.90 92.87,447.00 92.01,447.00 C89.66,447.00 85.87,444.02 86.64,442.78 C87.05,442.11 86.84,441.98 86.11,442.43 C85.45,442.84 84.29,442.66 83.53,442.03 C81.75,440.55 78.69,441.07 77.82,443.00 C77.45,443.83 77.11,452.33 77.07,461.91 ZM 811.00 283.00 L 771.00 283.00 L 771.00 250.00 L 790.75 250.01 C801.61,250.02 827.71,249.76 848.75,249.44 L 887.00 248.86 L 887.00 263.85 C887.00,272.09 886.73,279.55 886.39,280.42 C885.87,281.78 883.24,282.00 867.40,282.00 L 849.01 282.00 L 848.50 448.50 L 811.00 449.04 L 811.00 283.00 ZM 1079.00 452.40 C1064.97,451.73 1047.76,451.14 1040.75,451.09 L 1028.00 451.00 L 1028.00 249.00 L 1063.99 249.00 L 1064.50 415.50 L 1075.50 416.18 C1081.55,416.55 1094.95,417.16 1105.27,417.54 L 1124.05 418.22 L 1123.77 435.86 L 1123.50 453.50 L 1114.00 453.56 C1108.78,453.59 1093.03,453.06 1079.00,452.40 ZM 1177.00 457.85 C1170.12,457.38 1161.69,456.73 1158.25,456.42 L 1152.00 455.84 L 1152.00 352.98 C1152.00,296.41 1152.34,249.98 1152.75,249.81 C1153.16,249.64 1161.94,249.64 1172.25,249.81 L 1191.00 250.12 L 1191.00 354.56 C1191.00,404.22 1190.75,446.02 1190.41,456.38 C1190.29,456.37 1190.15,456.41 1190.00,456.50 C1189.45,456.84 1189.00,457.54 1189.00,458.06 C1189.00,458.34 1189.13,458.59 1189.33,458.76 C1187.35,458.58 1182.46,458.22 1177.00,457.85 ZM 300.26 319.39 C287.92,319.53 289.54,319.74 302.00,320.06 C335.39,320.92 343.94,321.56 352.89,323.86 C362.11,326.24 363.44,327.13 362.61,330.41 C362.24,331.88 361.50,332.81 360.97,332.48 C360.11,331.95 359.82,332.66 360.09,334.64 C360.13,334.99 359.77,335.55 359.29,335.89 C358.80,336.22 357.20,339.01 355.72,342.07 C350.94,351.98 338.35,358.00 322.44,358.00 C316.80,358.00 313.61,357.93 311.89,359.49 C309.59,361.55 309.87,366.47 310.36,378.21 C310.72,387.13 311.57,395.92 312.23,397.76 C313.66,401.70 312.41,404.48 309.20,404.53 C308.06,404.55 305.61,405.94 303.75,407.64 C298.81,412.13 295.65,414.00 292.13,414.53 C290.41,414.79 287.66,415.20 286.02,415.45 C281.50,416.13 277.74,412.32 273.95,403.23 C272.18,398.98 270.15,391.67 269.44,387.00 C268.73,382.33 267.42,373.63 266.53,367.69 C264.86,356.60 264.85,329.40 266.50,322.12 C266.81,320.75 266.93,319.92 266.82,319.49 L 300.26 319.39 ZM 77.00 247.49 L 77.00 247.00 L 437.00 247.00 L 256.75 247.25 L 77.00 247.49 ZM 265.56 319.50 C264.73,320.83 264.55,326.98 264.63,347.33 L 264.50 319.50 L 265.56 319.50 ZM 1345.02 479.37 C1345.17,478.88 1344.96,477.60 1344.56,476.12 C1345.15,477.93 1345.41,479.20 1345.17,479.33 C1345.13,479.35 1345.08,479.36 1345.02,479.37 ZM 744.25 250.15 L 744.91 250.14 L 744.92 250.68 C744.80,250.45 744.56,250.27 744.25,250.15 ZM 119.00 432.77 C119.02,433.00 122.28,433.18 128.40,433.32 C122.23,433.20 119.00,433.02 119.00,432.78 L 119.00 432.77 ZM 437.00 319.00 L 425.65 319.02 L 437.00 318.99 L 437.00 319.00 ZM 611.85 425.50 C611.98,425.52 612.08,425.55 612.13,425.58 C612.18,425.61 612.23,425.73 612.28,425.93 C612.15,425.77 612.00,425.63 611.85,425.50 Z" fill="rgba(254,0,1,1)"/>
<path d="M 380.50 478.01 C356.29,477.46 353.78,477.22 344.00,474.63 C326.32,469.95 309.70,460.90 297.44,449.29 C293.14,445.22 289.10,440.45 285.44,435.18 C287.86,438.13 292.54,443.09 296.74,447.14 C309.90,459.82 327.03,469.28 343.84,473.13 C349.02,474.32 354.58,474.80 361.00,474.60 C372.20,474.26 377.08,472.27 382.15,465.96 C383.94,463.74 386.87,461.01 388.65,459.91 C390.44,458.80 392.92,456.23 394.17,454.20 C395.42,452.16 398.45,448.33 400.92,445.68 C404.44,441.90 405.19,440.52 404.39,439.26 C402.38,436.08 395.82,434.74 378.50,433.98 C372.35,433.71 368.07,433.44 364.78,433.08 C370.12,433.49 379.39,433.50 399.75,433.50 L 437.00 433.50 L 437.00 479.00 L 421.75 478.80 C413.36,478.69 394.80,478.34 380.50,478.01 ZM 437.00 340.00 L 437.00 361.00 L 311.79 361.00 L 355.64 360.89 C397.70,360.79 423.09,359.98 429.50,358.55 C431.15,358.18 433.51,357.67 434.75,357.42 C436.91,356.98 437.00,356.87 437.00,340.00 ZM 267.35 393.94 C266.80,391.46 266.33,388.98 265.97,386.50 C265.72,384.81 265.48,381.49 265.28,377.14 C265.68,383.97 266.33,389.07 267.35,393.94 ZM 333.66 418.48 C339.75,423.80 347.18,428.01 356.00,431.17 C356.54,431.36 357.04,431.54 357.52,431.70 C356.84,431.50 356.17,431.27 355.50,431.03 C346.90,427.87 339.64,423.72 333.66,418.48 Z" fill="rgba(155,1,3,1)"/>
<path d="M 343.84 473.13 C327.03,469.28 309.90,459.82 296.74,447.14 C291.86,442.44 286.33,436.49 284.44,433.92 C279.51,427.20 272.66,412.84 269.71,403.00 C265.90,390.34 264.92,381.80 264.68,355.27 C265.24,385.67 268.30,400.37 276.98,417.35 C283.56,430.21 295.92,444.28 301.77,445.57 C303.27,445.90 304.95,446.34 305.50,446.55 C307.91,447.44 312.41,445.76 317.28,442.16 C320.17,440.03 323.64,437.93 325.00,437.50 C326.35,437.07 328.66,435.84 330.12,434.76 C332.73,432.82 332.75,432.71 331.52,427.43 C330.84,424.48 328.42,419.21 326.15,415.73 C319.47,405.48 315.20,392.63 313.20,376.72 C316.97,404.41 330.64,421.91 355.50,431.03 C360.35,432.81 364.77,433.37 378.50,433.98 C395.82,434.74 402.38,436.08 404.39,439.26 C405.19,440.52 404.44,441.90 400.92,445.68 C398.45,448.33 395.42,452.16 394.17,454.20 C392.92,456.23 390.44,458.80 388.65,459.91 C386.87,461.01 383.94,463.74 382.15,465.96 C377.08,472.27 372.20,474.26 361.00,474.60 C354.58,474.80 349.02,474.32 343.84,473.13 ZM 299.79 319.40 C309.19,319.29 327.18,319.22 355.25,319.16 L 437.00 319.00 L 437.00 337.98 C437.00,356.86 436.99,356.96 434.75,357.42 C433.51,357.67 431.15,358.18 429.50,358.55 C423.09,359.98 397.70,360.79 355.64,360.89 L 321.95 360.97 L 338.14 360.52 C373.18,359.54 376.69,358.75 387.00,349.60 C392.93,344.34 393.34,343.52 393.51,336.79 C393.60,332.98 394.20,330.43 395.32,329.20 C397.65,326.62 397.44,325.69 394.09,323.71 C389.03,320.72 374.92,319.89 323.50,319.54 C313.45,319.47 305.59,319.42 299.79,319.40 ZM 363.02 293.81 C390.12,293.77 404.00,293.50 404.00,293.00 C404.00,292.45 403.10,292.00 402.00,292.00 C400.90,292.00 400.00,291.55 400.00,291.00 C400.00,290.45 399.07,290.00 397.94,290.00 C396.05,290.00 395.93,289.60 396.56,285.25 C396.94,282.64 397.85,279.81 398.58,278.96 C400.47,276.80 403.00,270.47 403.00,267.91 C403.00,266.73 404.39,264.18 406.09,262.24 C408.53,259.47 409.04,258.17 408.50,256.11 C408.13,254.68 407.71,252.15 407.57,250.50 L 407.31 247.50 L 241.90 247.50 C159.04,247.49 119.05,247.49 119.05,247.53 C119.05,247.56 153.06,247.63 218.81,247.75 C277.70,247.86 318.48,248.06 340.69,248.36 C318.48,248.06 277.70,247.86 218.81,247.75 L 76.50 247.49 L 437.00 247.00 L 437.00 294.00 L 363.02 293.81 ZM 119.03 478.25 C132.37,478.45 142.48,478.60 150.22,478.68 L 77.00 479.31 L 77.05 466.03 C77.08,473.91 77.40,473.85 79.05,472.97 C81.45,471.69 92.40,473.54 91.45,475.07 C91.14,475.58 92.39,476.00 94.24,476.00 C96.09,476.00 98.04,476.44 98.58,476.98 C99.13,477.53 108.11,478.08 119.03,478.25 ZM 244.49 442.90 C244.80,445.29 244.96,450.36 244.97,458.19 C244.99,468.47 244.64,477.10 244.20,477.37 C243.81,477.62 213.40,478.08 174.13,478.46 C175.81,478.33 176.99,478.16 178.11,477.93 C181.11,477.34 196.82,476.82 213.54,476.76 C240.07,476.66 243.59,476.46 243.71,475.07 C244.42,466.90 244.78,448.84 244.49,442.90 ZM 341.43 321.85 C333.82,321.04 322.67,320.59 302.00,320.06 C296.67,319.92 293.33,319.81 292.21,319.71 C294.66,319.79 297.94,319.88 302.00,320.00 C322.71,320.58 333.85,321.04 341.43,321.85 ZM 242.49 447.00 C243.12,443.14 243.62,441.23 244.01,441.31 C243.50,442.38 242.85,444.78 242.49,447.00 ZM 311.81 361.26 L 312.27 367.23 L 311.79 361.26 L 311.81 361.26 Z" fill="rgba(212,1,3,1)"/>
<path d="M 1343.58 478.81 C1342.41,475.00 1341.25,468.92 1341.80,469.47 C1343.24,470.91 1345.74,479.04 1344.90,479.56 C1344.40,479.87 1343.80,479.54 1343.58,478.81 ZM 119.03 478.25 C108.11,478.08 99.13,477.53 98.58,476.98 C98.04,476.44 96.09,476.00 94.24,476.00 C92.39,476.00 91.14,475.58 91.45,475.07 C92.40,473.54 81.45,471.69 79.05,472.97 C77.03,474.06 77.00,473.89 77.07,459.29 C77.11,451.15 77.45,443.83 77.82,443.00 C78.69,441.07 81.75,440.55 83.53,442.03 C84.29,442.66 85.45,442.84 86.11,442.43 C86.84,441.98 87.05,442.11 86.64,442.78 C85.87,444.02 89.66,447.00 92.01,447.00 C92.87,447.00 95.34,447.90 97.50,449.00 C99.66,450.10 102.45,451.00 103.72,451.00 C104.98,451.00 107.69,451.90 109.74,453.00 C111.79,454.10 113.98,455.00 114.60,455.00 C115.23,455.00 118.56,455.90 122.00,457.00 C125.44,458.10 129.33,459.00 130.64,459.00 C131.94,459.00 135.35,460.13 138.20,461.50 C141.06,462.88 144.21,463.75 145.20,463.44 C146.19,463.12 147.00,463.23 147.00,463.68 C147.00,464.13 148.24,464.53 149.75,464.58 C153.18,464.67 157.58,465.62 159.18,466.61 C159.84,467.02 167.84,467.28 176.94,467.18 C192.11,467.02 205.87,465.66 221.50,462.79 C224.80,462.19 228.29,461.67 229.25,461.63 C230.21,461.60 231.00,461.22 231.00,460.79 C231.00,460.35 231.86,460.00 232.92,460.00 C237.82,460.00 241.10,455.54 242.49,447.00 C242.90,444.52 243.65,441.83 244.17,441.00 C244.93,439.80 244.59,464.97 243.71,475.07 C243.59,476.46 240.07,476.66 213.54,476.76 C196.82,476.82 181.11,477.34 178.11,477.93 C173.03,478.94 166.71,478.97 119.03,478.25 ZM 1189.00 458.06 C1189.00,457.54 1189.45,456.84 1190.00,456.50 C1190.55,456.16 1191.00,456.58 1191.00,457.44 C1191.00,458.30 1190.55,459.00 1190.00,459.00 C1189.45,459.00 1189.00,458.58 1189.00,458.06 ZM 305.50 446.55 C304.95,446.34 303.27,445.90 301.77,445.57 C295.92,444.28 283.56,430.21 276.98,417.35 C267.47,398.74 264.71,382.87 264.59,346.09 C264.52,324.45 264.75,319.59 265.88,319.21 C266.97,318.84 267.10,319.46 266.50,322.12 C264.85,329.40 264.86,356.60 266.53,367.69 C267.42,373.63 268.73,382.33 269.44,387.00 C270.15,391.67 272.18,398.98 273.95,403.23 C277.74,412.32 281.50,416.13 286.02,415.45 C287.66,415.20 290.41,414.79 292.13,414.53 C295.65,414.00 298.81,412.13 303.75,407.64 C305.61,405.94 308.06,404.55 309.20,404.53 C312.41,404.48 313.66,401.70 312.23,397.76 C311.57,395.92 310.72,387.13 310.36,378.21 C309.51,357.64 309.29,358.00 322.44,358.00 C338.35,358.00 350.94,351.98 355.72,342.07 C357.20,339.01 358.80,336.22 359.29,335.89 C359.77,335.55 360.13,334.99 360.09,334.64 C359.82,332.66 360.11,331.95 360.97,332.48 C361.50,332.81 362.24,331.88 362.61,330.41 C363.44,327.13 362.11,326.24 352.89,323.86 C344.00,321.58 335.57,320.93 302.00,320.00 C277.85,319.32 281.14,319.25 323.50,319.54 C374.92,319.89 389.03,320.72 394.09,323.71 C397.44,325.69 397.65,326.62 395.32,329.20 C394.20,330.43 393.60,332.98 393.51,336.79 C393.34,343.52 392.93,344.34 387.00,349.60 C376.69,358.75 373.18,359.54 338.14,360.52 L 311.79 361.26 L 312.49 369.88 C314.06,388.99 318.54,404.05 326.15,415.73 C328.42,419.21 330.84,424.48 331.52,427.43 C332.75,432.71 332.73,432.82 330.12,434.76 C328.66,435.84 326.35,437.07 325.00,437.50 C323.64,437.93 320.17,440.03 317.28,442.16 C312.41,445.76 307.91,447.44 305.50,446.55 ZM 119.25 436.05 C116.47,434.83 116.25,430.67 118.76,426.83 C119.71,425.36 127.03,416.18 135.00,406.42 C142.98,396.66 156.48,380.06 165.00,369.54 C184.14,345.91 186.79,342.69 195.29,332.71 C199.02,328.32 201.91,324.23 201.71,323.61 C201.27,322.31 152.70,321.05 148.19,322.23 C145.42,322.95 135.59,333.13 133.03,337.93 C132.32,339.27 128.98,343.37 125.62,347.06 C122.25,350.74 117.57,356.40 115.20,359.63 C109.99,366.75 90.47,390.17 83.32,397.89 C77.30,404.38 74.80,404.18 80.60,397.67 C82.75,395.26 88.38,388.62 93.13,382.90 C97.87,377.18 107.55,365.52 114.64,357.00 C121.73,348.48 131.49,336.66 136.34,330.75 L 145.16 320.00 L 176.08 320.00 C204.87,320.00 207.00,320.12 206.98,321.75 C206.97,322.71 200.56,331.18 192.73,340.57 C170.16,367.64 125.39,422.80 121.24,428.65 C120.01,430.39 119.00,432.25 119.00,432.78 C119.00,433.40 141.43,433.64 181.25,433.44 C233.94,433.18 242.27,433.32 235.50,434.38 C230.70,435.14 215.89,435.71 198.50,435.82 C182.55,435.92 158.70,436.23 145.50,436.51 C130.81,436.83 120.63,436.65 119.25,436.05 ZM 611.15 427.34 C610.41,426.53 610.08,425.59 610.42,425.25 C611.25,424.41 613.32,426.58 612.86,427.81 C612.66,428.36 611.89,428.14 611.15,427.34 ZM 307.50 292.96 C337.00,292.60 355.80,291.98 358.00,291.30 C359.92,290.70 360.90,290.16 360.18,290.10 C358.40,289.97 359.14,286.50 360.94,286.50 C361.72,286.50 362.68,285.27 363.09,283.77 C364.01,280.32 368.16,273.64 374.21,265.89 C379.63,258.94 380.81,256.13 378.86,254.88 C377.08,253.73 370.98,252.01 368.69,252.01 C367.70,252.00 367.16,251.55 367.50,251.00 C367.87,250.40 366.49,250.00 364.00,250.00 C361.52,250.00 360.13,249.60 360.50,249.00 C360.91,248.34 313.03,247.92 218.81,247.75 C81.77,247.50 82.62,247.49 241.90,247.50 L 407.31 247.50 L 407.57 250.50 C407.71,252.15 408.13,254.68 408.50,256.11 C409.04,258.17 408.53,259.47 406.09,262.24 C404.39,264.18 403.00,266.73 403.00,267.91 C403.00,270.47 400.47,276.80 398.58,278.96 C397.85,279.81 396.94,282.64 396.56,285.25 C395.93,289.60 396.05,290.00 397.94,290.00 C399.07,290.00 400.00,290.45 400.00,291.00 C400.00,291.55 400.90,292.00 402.00,292.00 C403.10,292.00 404.00,292.45 404.00,293.00 C404.00,293.66 379.57,293.92 332.25,293.77 L 260.50 293.54 L 307.50 292.96 ZM 1305.50 252.00 C1305.84,251.45 1306.79,251.00 1307.62,251.00 C1308.44,251.00 1308.84,251.45 1308.50,252.00 C1308.16,252.55 1307.21,253.00 1306.38,253.00 C1305.56,253.00 1305.16,252.55 1305.50,252.00 ZM 742.50 251.00 C742.16,250.45 742.58,250.00 743.44,250.00 C744.30,250.00 745.00,250.45 745.00,251.00 C745.00,251.55 744.58,252.00 744.06,252.00 C743.54,252.00 742.84,251.55 742.50,251.00 ZM 1219.00 251.00 C1219.00,249.75 1220.06,249.75 1222.00,251.00 C1223.21,251.78 1223.07,251.97 1221.25,251.98 C1220.01,251.99 1219.00,251.55 1219.00,251.00 Z" fill="rgba(239,1,3,1)"/>
</g>
</svg>